<svg xmlns="http://www.w3.org/2000/svg" viewBox="0 0 256 256" role="img" aria-label="Rock ET Dock alien head logo">
  <defs>
    <linearGradient id="head" x1="62" x2="197" y1="28" y2="234" gradientUnits="userSpaceOnUse">
      <stop offset="0" stop-color="#33d665"/>
      <stop offset="1" stop-color="#159b41"/>
    </linearGradient>
    <linearGradient id="bandana" x1="23" x2="232" y1="84" y2="148" gradientUnits="userSpaceOnUse">
      <stop offset="0" stop-color="#ff202a"/>
      <stop offset="1" stop-color="#d90816"/>
    </linearGradient>
  </defs>

  <path fill="url(#head)" stroke="#020403" stroke-linejoin="round" stroke-width="11"
        d="M36 99C42 55 83 23 134 20c50-3 89 22 103 62 8 26 1 76-23 119-21 39-55 56-88 48-36-9-73-47-88-88-8-22-9-44-2-62Z"/>
  <path fill="#5ff083" opacity=".38"
        d="M55 95c12-37 49-60 92-60 23 0 45 7 62 20-32-6-82-3-117 9-18 6-30 15-37 31Z"/>

  <path fill="url(#bandana)" stroke="#020403" stroke-linejoin="round" stroke-width="10"
        d="M23 93c34-23 75-33 124-34 39 0 72 8 94 26 8 21 4 46-10 72-59-13-132-13-205 4-9-26-11-49-3-68Z"/>
  <path fill="#ff3c42" opacity=".42"
        d="M38 103c44-20 117-28 178-16-56 1-127 10-185 32 1-6 3-11 7-16Z"/>
  <path fill="#a90010" stroke="#020403" stroke-linejoin="round" stroke-width="9"
        d="M213 100c20-2 34 6 39 24-9-2-20 1-31 9-4-11-6-22-8-33Z"/>

  <g fill="#69001b" opacity=".95">
    <circle cx="54" cy="121" r="7"/>
    <circle cx="76" cy="109" r="8"/>
    <circle cx="97" cy="127" r="7"/>
    <circle cx="119" cy="111" r="6"/>
    <circle cx="145" cy="125" r="8"/>
    <circle cx="171" cy="104" r="7"/>
    <circle cx="192" cy="125" r="8"/>
    <circle cx="215" cy="111" r="7"/>
    <circle cx="73" cy="144" r="5"/>
    <circle cx="109" cy="145" r="6"/>
    <circle cx="157" cy="145" r="5"/>
    <circle cx="203" cy="145" r="6"/>
  </g>
  <g fill="#050505" opacity=".95">
    <circle cx="44" cy="135" r="3.8"/>
    <circle cx="86" cy="136" r="3.5"/>
    <circle cx="130" cy="132" r="3.8"/>
    <circle cx="181" cy="135" r="3.5"/>
    <circle cx="227" cy="128" r="4"/>
  </g>

  <path fill="#020403"
        d="M61 144c15-28 53-24 81 8-23 28-65 28-84 10-6-6-3-14 3-18Z"/>
  <path fill="#020403"
        d="M195 144c-15-28-53-24-81 8 23 28 65 28 84 10 6-6 3-14-3-18Z"/>
  <path fill="#101010" opacity=".22"
        d="M79 151c15-10 36-9 51 5-17 12-40 12-51-5Z"/>
  <path fill="#101010" opacity=".22"
        d="M177 151c-15-10-36-9-51 5 17 12 40 12 51-5Z"/>

  <circle cx="125" cy="190" r="2.2" fill="#020403"/>
  <circle cx="132" cy="190" r="2.2" fill="#020403"/>
  <path fill="none" stroke="#020403" stroke-linecap="round" stroke-width="6"
        d="M101 218c29-13 58-27 82-38"/>
</svg>
